<?xml version="1.0" standalone="no"?>
<!DOCTYPE svg PUBLIC "-//W3C//DTD SVG 20010904//EN"
 "http://www.w3.org/TR/2001/REC-SVG-20010904/DTD/svg10.dtd">
<svg version="1.0" xmlns="http://www.w3.org/2000/svg"
 width="1181.000000pt" height="1181.000000pt" viewBox="0 0 1181.000000 1181.000000"
 preserveAspectRatio="xMidYMid meet">
<metadata>
Created by potrace 1.14, written by Peter Selinger 2001-2017
</metadata>
<g transform="translate(0.000000,1181.000000) scale(0.100000,-0.100000)"
fill="#000000" stroke="none">
<path d="M4983 7903 l1567 -1568 1567 1568 1568 1567 -3135 0 -3135 0 1568
-1567z"/>
<path d="M2490 8595 l-625 -625 1568 -1568 1567 -1567 627 628 628 627 -1565
1565 c-861 861 -1567 1565 -1570 1565 -3 0 -286 -281 -630 -625z"/>
<path d="M6855 6080 l-3130 -3130 50 -51 c28 -28 109 -101 180 -163 679 -589
1478 -943 2388 -1058 147 -19 222 -22 517 -22 295 0 370 3 517 22 707 90 1343
322 1917 700 674 443 1217 1066 1566 1795 220 461 345 910 412 1482 17 147 17
703 0 850 -22 186 -42 314 -73 470 -147 726 -480 1408 -968 1980 -91 106 -231
255 -240 255 -3 0 -1414 -1408 -3136 -3130z"/>
<path d="M977 7102 l-627 -627 1568 -1568 1567 -1567 628 628 627 627 -1568
1568 -1567 1567 -628 -628z"/>
</g>
</svg>
