<?xml version="1.0" standalone="no"?>
<!DOCTYPE svg PUBLIC "-//W3C//DTD SVG 20010904//EN"
 "http://www.w3.org/TR/2001/REC-SVG-20010904/DTD/svg10.dtd">
<svg version="1.0" xmlns="http://www.w3.org/2000/svg"
 width="512.000000pt" height="512.000000pt" viewBox="0 0 512.000000 512.000000"
 preserveAspectRatio="xMidYMid meet">
<metadata>
Created by potrace 1.14, written by Peter Selinger 2001-2017
</metadata>
<g transform="translate(0.000000,512.000000) scale(0.100000,-0.100000)"
fill="#000000" stroke="none">
<path d="M2890 4478 c-178 -16 -321 -68 -500 -183 -497 -319 -760 -948 -621
-1487 40 -157 75 -240 159 -383 43 -72 46 -76 175 -239 286 -360 278 -350 345
-476 51 -96 65 -155 66 -270 0 -98 -2 -110 -29 -165 -59 -116 -161 -191 -295
-215 -160 -29 -307 42 -379 183 -45 89 -57 179 -43 337 12 144 9 170 -25 202
-33 31 -118 31 -183 1 -102 -48 -216 -201 -244 -330 -20 -92 -20 -214 0 -284
41 -141 167 -292 299 -361 215 -111 531 -111 780 0 236 104 431 297 517 510
68 170 70 404 3 588 -55 152 -115 255 -306 524 -309 436 -377 684 -289 1052
52 220 186 431 350 554 212 157 544 165 686 16 111 -117 115 -372 10 -581 -72
-141 -224 -309 -345 -381 -69 -41 -91 -69 -91 -118 0 -49 34 -122 78 -168 107
-112 269 -121 432 -24 78 46 140 104 212 199 65 86 117 178 157 281 104 264
81 639 -51 838 -15 24 -28 47 -28 52 0 20 -169 177 -226 211 -82 49 -183 88
-257 101 -94 15 -273 24 -357 16z"/>
</g>
</svg>
